M48
;Layer_Color=9474304
;FILE_FORMAT=4:3
METRIC,TZ
;TYPE=PLATED
T1F00S00C0.300
T2F00S00C0.500
%
T01
X800Y4800
X8100Y4975
T02
X700Y600
Y1600
X1700
X2700
X3700
X4700
X5700
X6700
X7700
X8700
X9700
Y600
X8700
X7700
X6700
X5700
X4700
X3700
X2700
X1700
Y5800
Y6800
Y7800
X700
Y6800
Y5800
X2700
Y6800
Y7800
Y8800
Y9800
X1700
X700
Y8800
X1700
X3700
Y9800
X4700
Y8800
Y7800
Y6800
X3700
Y7800
Y5800
X4700
X5875Y6200
X6900
Y7200
Y8200
X5900
Y7200
X7800Y7700
Y8700
X8700Y8200
X9700
Y7200
X8700
X7800Y6700
X8700Y9200
X9700
X11300Y8800
X12300
X13300
Y7800
Y6800
Y5800
X12300
X11300
Y6800
Y7800
X12300
Y6800
Y9800
X13300
X11300
Y1600
X12300
X13300
Y600
X12300
X11300
X10500Y1100
X6700Y2600
X14300Y1600
Y600
X15300
Y1600
Y2600
Y3600
Y4600
Y5800
Y6800
Y7800
Y8800
Y9800
X14300
Y8800
Y7800
Y6800
Y5800
M30
