G04*
G04 #@! TF.GenerationSoftware,Altium Limited,Altium Designer,18.0.11 (651)*
G04*
G04 Layer_Physical_Order=2*
G04 Layer_Color=16711680*
%FSLAX43Y43*%
%MOMM*%
G71*
G01*
G75*
%ADD25C,0.300*%
%ADD27C,0.600*%
%ADD28C,0.800*%
%ADD29R,4.600X4.000*%
G36*
X5300Y8259D02*
X5288Y8200D01*
X5300Y8141D01*
Y7259D01*
X5288Y7200D01*
X5300Y7141D01*
X5300Y6385D01*
X5263Y6200D01*
X5300Y6015D01*
Y5332D01*
X975D01*
X839Y5305D01*
X835Y5303D01*
X800Y5310D01*
X751Y5300D01*
X204D01*
Y10296D01*
X5300D01*
X5300Y8259D01*
D02*
G37*
G36*
X15796Y5200D02*
X15359D01*
X15300Y5212D01*
X15241Y5200D01*
X10800D01*
Y10296D01*
X15796D01*
Y5200D01*
D02*
G37*
G36*
X10500Y6000D02*
X10596D01*
Y5200D01*
X10488Y5027D01*
X10453Y5000D01*
X8605D01*
X8571Y5170D01*
X8461Y5336D01*
X8295Y5446D01*
X8100Y5485D01*
X7905Y5446D01*
X7740Y5336D01*
X7738Y5332D01*
X5504D01*
Y6015D01*
X5500Y6035D01*
Y6055D01*
X5471Y6200D01*
X5500Y6345D01*
Y6365D01*
X5504Y6385D01*
X5504Y7141D01*
X5500Y7161D01*
Y7181D01*
X5496Y7200D01*
X5500Y7219D01*
Y7239D01*
X5504Y7259D01*
Y8141D01*
X5500Y8161D01*
Y8181D01*
X5496Y8200D01*
X5500Y8219D01*
Y8239D01*
X5504Y8259D01*
X5504Y10296D01*
X10500D01*
Y6000D01*
D02*
G37*
G36*
X15339Y5000D02*
X15359Y4996D01*
X15796D01*
Y204D01*
X204D01*
Y4432D01*
X404Y4493D01*
X440Y4440D01*
X605Y4329D01*
X800Y4290D01*
X995Y4329D01*
X1160Y4440D01*
X1271Y4605D01*
X1274Y4618D01*
X7738D01*
X7740Y4615D01*
X7905Y4504D01*
X8100Y4465D01*
X8295Y4504D01*
X8461Y4615D01*
X8571Y4780D01*
X8575Y4800D01*
X8586D01*
X8605Y4796D01*
X10453D01*
X10479Y4801D01*
X10505Y4803D01*
X10517Y4809D01*
X10531Y4812D01*
X10553Y4826D01*
X10577Y4838D01*
X10612Y4865D01*
X10636Y4892D01*
X10661Y4919D01*
X10711Y5000D01*
X10780D01*
X10800Y4996D01*
X15241D01*
X15261Y5000D01*
X15281D01*
X15281Y5000D01*
X15319D01*
X15339D01*
D02*
G37*
D25*
X800Y4800D02*
X975Y4975D01*
X8100D01*
D27*
D03*
X800Y4800D02*
D03*
D28*
X7800Y8700D02*
D03*
Y7700D02*
D03*
Y6700D02*
D03*
X5900Y8200D02*
D03*
X6700Y2600D02*
D03*
X9700Y600D02*
D03*
Y1600D02*
D03*
X8700D02*
D03*
Y600D02*
D03*
X7700D02*
D03*
X6700Y1600D02*
D03*
X5700Y600D02*
D03*
Y1600D02*
D03*
X4700D02*
D03*
X1700D02*
D03*
X700D02*
D03*
Y600D02*
D03*
X3700Y1600D02*
D03*
X7700D02*
D03*
X10500Y1100D02*
D03*
X6700Y600D02*
D03*
X3700D02*
D03*
X2700D02*
D03*
X1700Y6800D02*
D03*
Y7800D02*
D03*
X2700Y6800D02*
D03*
X700Y7800D02*
D03*
Y6800D02*
D03*
Y8800D02*
D03*
Y9800D02*
D03*
X1700D02*
D03*
X2700D02*
D03*
X1700Y8800D02*
D03*
X2700D02*
D03*
Y7800D02*
D03*
X700Y5800D02*
D03*
X1700D02*
D03*
X2700D02*
D03*
X3700Y8800D02*
D03*
Y9800D02*
D03*
Y7800D02*
D03*
Y6800D02*
D03*
Y5800D02*
D03*
X4700D02*
D03*
Y6800D02*
D03*
Y7800D02*
D03*
Y9800D02*
D03*
Y8800D02*
D03*
X12300Y1600D02*
D03*
X13300D02*
D03*
X11300D02*
D03*
Y600D02*
D03*
X12300D02*
D03*
X13300D02*
D03*
X14300Y1600D02*
D03*
Y600D02*
D03*
X15300D02*
D03*
Y1600D02*
D03*
Y2600D02*
D03*
Y4600D02*
D03*
Y3600D02*
D03*
Y8800D02*
D03*
Y9800D02*
D03*
Y7800D02*
D03*
Y6800D02*
D03*
Y5800D02*
D03*
X14300D02*
D03*
Y6800D02*
D03*
Y7800D02*
D03*
Y9800D02*
D03*
Y8800D02*
D03*
X13300Y5800D02*
D03*
X12300D02*
D03*
X11300D02*
D03*
X13300Y7800D02*
D03*
Y8800D02*
D03*
X12300D02*
D03*
X13300Y9800D02*
D03*
X12300D02*
D03*
X11300D02*
D03*
Y8800D02*
D03*
Y6800D02*
D03*
Y7800D02*
D03*
X13300Y6800D02*
D03*
X12300Y7800D02*
D03*
Y6800D02*
D03*
X4700Y600D02*
D03*
X1700D02*
D03*
X2700Y1600D02*
D03*
X9700Y8200D02*
D03*
Y7200D02*
D03*
X8700D02*
D03*
Y8200D02*
D03*
X8700Y9200D02*
D03*
X9700D02*
D03*
X6900Y7200D02*
D03*
Y8200D02*
D03*
Y6200D02*
D03*
X5875D02*
D03*
X5900Y7200D02*
D03*
D29*
X13000Y8200D02*
D03*
X2800D02*
D03*
X13000Y2300D02*
D03*
X2800D02*
D03*
M02*
