G04*
G04 #@! TF.GenerationSoftware,Altium Limited,Altium Designer,18.0.11 (651)*
G04*
G04 Layer_Physical_Order=1*
G04 Layer_Color=255*
%FSLAX43Y43*%
%MOMM*%
G71*
G01*
G75*
G04:AMPARAMS|DCode=18|XSize=1mm|YSize=0.9mm|CornerRadius=0.113mm|HoleSize=0mm|Usage=FLASHONLY|Rotation=0.000|XOffset=0mm|YOffset=0mm|HoleType=Round|Shape=RoundedRectangle|*
%AMROUNDEDRECTD18*
21,1,1.000,0.675,0,0,0.0*
21,1,0.775,0.900,0,0,0.0*
1,1,0.225,0.388,-0.338*
1,1,0.225,-0.388,-0.338*
1,1,0.225,-0.388,0.338*
1,1,0.225,0.388,0.338*
%
%ADD18ROUNDEDRECTD18*%
G04:AMPARAMS|DCode=19|XSize=0.8mm|YSize=0.8mm|CornerRadius=0.1mm|HoleSize=0mm|Usage=FLASHONLY|Rotation=270.000|XOffset=0mm|YOffset=0mm|HoleType=Round|Shape=RoundedRectangle|*
%AMROUNDEDRECTD19*
21,1,0.800,0.600,0,0,270.0*
21,1,0.600,0.800,0,0,270.0*
1,1,0.200,-0.300,-0.300*
1,1,0.200,-0.300,0.300*
1,1,0.200,0.300,0.300*
1,1,0.200,0.300,-0.300*
%
%ADD19ROUNDEDRECTD19*%
G04:AMPARAMS|DCode=20|XSize=1mm|YSize=0.9mm|CornerRadius=0.113mm|HoleSize=0mm|Usage=FLASHONLY|Rotation=90.000|XOffset=0mm|YOffset=0mm|HoleType=Round|Shape=RoundedRectangle|*
%AMROUNDEDRECTD20*
21,1,1.000,0.675,0,0,90.0*
21,1,0.775,0.900,0,0,90.0*
1,1,0.225,0.338,0.388*
1,1,0.225,0.338,-0.388*
1,1,0.225,-0.338,-0.388*
1,1,0.225,-0.338,0.388*
%
%ADD20ROUNDEDRECTD20*%
%ADD21R,1.220X0.400*%
%ADD22O,1.220X0.400*%
%ADD23R,4.623X4.521*%
%ADD24R,1.651X0.610*%
%ADD25C,0.300*%
%ADD26C,0.200*%
%ADD27C,0.600*%
%ADD28C,0.800*%
G36*
X10101Y6534D02*
X9767Y6200D01*
X8256D01*
Y5613D01*
X8100Y5485D01*
X7905Y5446D01*
X7740Y5336D01*
X7683Y5292D01*
X7410Y5300D01*
Y5300D01*
X6405D01*
X6312Y5393D01*
X6196Y5470D01*
X6060Y5497D01*
X5896D01*
X5795Y5598D01*
X5679Y5675D01*
X5543Y5702D01*
X5411D01*
Y9056D01*
X5693Y9100D01*
Y9100D01*
X7084D01*
X7102Y9097D01*
X7121Y9100D01*
X7744D01*
Y9611D01*
X7933Y9800D01*
X10101D01*
Y6534D01*
D02*
G37*
G36*
X5300Y9225D02*
X5287Y9213D01*
X5267Y9200D01*
X5258Y9186D01*
X5246Y9175D01*
X5236Y9154D01*
X5223Y9134D01*
X5220Y9118D01*
X5213Y9103D01*
X5212Y9079D01*
X5207Y9056D01*
Y5702D01*
X5223Y5624D01*
X5267Y5558D01*
X5300Y5536D01*
Y5300D01*
X849D01*
X800Y5310D01*
X751Y5300D01*
X204D01*
Y10296D01*
X5300D01*
Y9225D01*
D02*
G37*
G36*
X15796Y5204D02*
X15339D01*
X15300Y5212D01*
X15261Y5204D01*
X15086D01*
X15075Y5202D01*
X15064Y5203D01*
X15055Y5200D01*
X10700D01*
Y6342D01*
X10713Y6407D01*
X10713Y6407D01*
Y9934D01*
X10713Y9934D01*
X10700Y9999D01*
Y10296D01*
X15796D01*
Y5204D01*
D02*
G37*
G36*
Y204D02*
X204D01*
Y1776D01*
X387Y2044D01*
X1163D01*
X1284Y2068D01*
X1388Y2137D01*
X1457Y2241D01*
X1481Y2362D01*
Y2901D01*
X1552Y2973D01*
X1630Y3088D01*
X1657Y3225D01*
Y3398D01*
X1903Y3644D01*
X2320D01*
X2448Y3348D01*
X2350Y3250D01*
Y2250D01*
X2550Y2050D01*
X3350D01*
X3364Y2064D01*
X3463Y2044D01*
X4137D01*
X4259Y2068D01*
X4363Y2137D01*
X4512Y2137D01*
X4616Y2068D01*
X4738Y2044D01*
X5512D01*
X5634Y2068D01*
X5738Y2137D01*
X5807Y2241D01*
X5831Y2363D01*
Y2901D01*
X6133Y3203D01*
X6190Y3192D01*
X7010D01*
X7103Y3211D01*
X7206Y3195D01*
X7428Y3038D01*
X7430Y3029D01*
X7508Y2913D01*
X8298Y2123D01*
X8414Y2045D01*
X8550Y2018D01*
X10750D01*
X10879Y2044D01*
X11462D01*
X11584Y2068D01*
X11688Y2137D01*
X11735Y2207D01*
X11822Y2231D01*
X11861Y2234D01*
X12059Y2221D01*
X12084Y2184D01*
X12183Y2117D01*
X12300Y2094D01*
X12900D01*
X13017Y2117D01*
X13116Y2184D01*
X13160Y2250D01*
X13307Y2259D01*
X13477Y2227D01*
X13537Y2137D01*
X13641Y2068D01*
X13762Y2044D01*
X14537D01*
X14659Y2068D01*
X14763Y2137D01*
X14832Y2241D01*
X14856Y2362D01*
Y3037D01*
X14836Y3136D01*
X14850Y3150D01*
Y3950D01*
X14836Y3964D01*
X14856Y4062D01*
Y4738D01*
X15059Y4985D01*
X15086Y5000D01*
X15796D01*
Y204D01*
D02*
G37*
D18*
X11075Y4400D02*
D03*
Y2700D02*
D03*
X14150Y2700D02*
D03*
Y4400D02*
D03*
X5125Y4400D02*
D03*
Y2700D02*
D03*
X775Y2700D02*
D03*
Y4400D02*
D03*
D19*
X12600Y2700D02*
D03*
Y4400D02*
D03*
D20*
X3800Y2750D02*
D03*
X2100D02*
D03*
X2100Y4350D02*
D03*
X3800D02*
D03*
D21*
X6600Y4900D02*
D03*
D22*
Y4250D02*
D03*
Y3600D02*
D03*
Y2950D02*
D03*
X9220Y4900D02*
D03*
Y4250D02*
D03*
Y3600D02*
D03*
Y2950D02*
D03*
D23*
X2900Y7700D02*
D03*
X13100Y7600D02*
D03*
D24*
X6718Y9605D02*
D03*
Y8335D02*
D03*
Y7065D02*
D03*
Y5795D02*
D03*
X9282Y5695D02*
D03*
Y6965D02*
D03*
Y8235D02*
D03*
Y9505D02*
D03*
D25*
X10850Y5350D02*
X13100Y7600D01*
X10562Y5350D02*
X10850D01*
X10180Y4968D02*
X10562Y5350D01*
X10180Y4672D02*
Y4968D01*
X14150Y4400D02*
X14150Y4400D01*
X12600Y4400D02*
X14150D01*
X12600Y2700D02*
X12600Y2700D01*
X11075Y2700D02*
X12600D01*
X10750Y2375D02*
X11075Y2700D01*
X8550Y2375D02*
X10750D01*
X10275Y3600D02*
X11075Y4400D01*
X9220Y3600D02*
X10275D01*
X11075Y4400D02*
X11975Y3500D01*
X13350D01*
X14150Y2700D01*
X7760Y3165D02*
X8550Y2375D01*
X7760Y3165D02*
Y4390D01*
X7250Y4900D02*
X7760Y4390D01*
X6600Y4900D02*
X7250D01*
X8260Y3372D02*
Y4816D01*
Y3372D02*
X8682Y2950D01*
X8100Y4975D02*
X8260Y4816D01*
X5125Y4400D02*
X5275Y4250D01*
X6600D01*
X5748Y5140D02*
X6060D01*
X5543Y5345D02*
X5748Y5140D01*
X3800Y4350D02*
X3850Y4400D01*
X5125D01*
X3800Y2750D02*
X3850Y2700D01*
X5125D01*
X6025Y3600D01*
X6600D01*
X8682Y2950D02*
X9220D01*
Y4250D02*
X9758D01*
X10180Y4672D01*
X775Y4475D02*
X800Y4500D01*
X775Y4400D02*
Y4475D01*
X1950Y4196D02*
Y6750D01*
X1300Y3546D02*
X1950Y4196D01*
X1300Y3225D02*
Y3546D01*
X775Y2700D02*
X1300Y3225D01*
X6060Y5140D02*
X6300Y4900D01*
X5255Y5345D02*
X5543D01*
X2900Y7700D02*
X5255Y5345D01*
X1950Y6750D02*
X2900Y7700D01*
X6300Y4900D02*
X6600D01*
X9220D02*
X9282Y4962D01*
Y5695D01*
D26*
X6718Y9505D02*
X7000D01*
X7810Y10110D02*
X10231D01*
X7102Y9403D02*
X7810Y10110D01*
X10231D02*
X10407Y9934D01*
X9282Y5695D02*
X9695D01*
X7000Y9505D02*
X7102Y9403D01*
X10407Y6407D02*
Y9934D01*
X9695Y5695D02*
X10407Y6407D01*
D27*
X8100Y4975D02*
D03*
X800Y4800D02*
D03*
D28*
X7800Y8700D02*
D03*
Y7700D02*
D03*
Y6700D02*
D03*
X5900Y8200D02*
D03*
X6700Y2600D02*
D03*
X9700Y600D02*
D03*
Y1600D02*
D03*
X8700D02*
D03*
Y600D02*
D03*
X7700D02*
D03*
X6700Y1600D02*
D03*
X5700Y600D02*
D03*
Y1600D02*
D03*
X4700D02*
D03*
X1700D02*
D03*
X700D02*
D03*
Y600D02*
D03*
X3700Y1600D02*
D03*
X7700D02*
D03*
X10500Y1100D02*
D03*
X6700Y600D02*
D03*
X3700D02*
D03*
X2700D02*
D03*
X1700Y6800D02*
D03*
Y7800D02*
D03*
X2700Y6800D02*
D03*
X700Y7800D02*
D03*
Y6800D02*
D03*
Y8800D02*
D03*
Y9800D02*
D03*
X1700D02*
D03*
X2700D02*
D03*
X1700Y8800D02*
D03*
X2700D02*
D03*
Y7800D02*
D03*
X700Y5800D02*
D03*
X1700D02*
D03*
X2700D02*
D03*
X3700Y8800D02*
D03*
Y9800D02*
D03*
Y7800D02*
D03*
Y6800D02*
D03*
Y5800D02*
D03*
X4700D02*
D03*
Y6800D02*
D03*
Y7800D02*
D03*
Y9800D02*
D03*
Y8800D02*
D03*
X12300Y1600D02*
D03*
X13300D02*
D03*
X11300D02*
D03*
Y600D02*
D03*
X12300D02*
D03*
X13300D02*
D03*
X14300Y1600D02*
D03*
Y600D02*
D03*
X15300D02*
D03*
Y1600D02*
D03*
Y2600D02*
D03*
Y4600D02*
D03*
Y3600D02*
D03*
Y8800D02*
D03*
Y9800D02*
D03*
Y7800D02*
D03*
Y6800D02*
D03*
Y5800D02*
D03*
X14300D02*
D03*
Y6800D02*
D03*
Y7800D02*
D03*
Y9800D02*
D03*
Y8800D02*
D03*
X13300Y5800D02*
D03*
X12300D02*
D03*
X11300D02*
D03*
X13300Y7800D02*
D03*
Y8800D02*
D03*
X12300D02*
D03*
X13300Y9800D02*
D03*
X12300D02*
D03*
X11300D02*
D03*
Y8800D02*
D03*
Y6800D02*
D03*
Y7800D02*
D03*
X13300Y6800D02*
D03*
X12300Y7800D02*
D03*
Y6800D02*
D03*
X4700Y600D02*
D03*
X1700D02*
D03*
X2700Y1600D02*
D03*
X9700Y8200D02*
D03*
Y7200D02*
D03*
X8700D02*
D03*
Y8200D02*
D03*
X8700Y9200D02*
D03*
X9700D02*
D03*
X6900Y7200D02*
D03*
Y8200D02*
D03*
Y6200D02*
D03*
X5875D02*
D03*
X5900Y7200D02*
D03*
M02*
