G04*
G04 #@! TF.GenerationSoftware,Altium Limited,Altium Designer,18.0.11 (651)*
G04*
G04 Layer_Color=8388736*
%FSLAX43Y43*%
%MOMM*%
G71*
G01*
G75*
G04:AMPARAMS|DCode=11|XSize=1.2mm|YSize=1.1mm|CornerRadius=0.213mm|HoleSize=0mm|Usage=FLASHONLY|Rotation=0.000|XOffset=0mm|YOffset=0mm|HoleType=Round|Shape=RoundedRectangle|*
%AMROUNDEDRECTD11*
21,1,1.200,0.675,0,0,0.0*
21,1,0.775,1.100,0,0,0.0*
1,1,0.425,0.388,-0.338*
1,1,0.425,-0.388,-0.338*
1,1,0.425,-0.388,0.338*
1,1,0.425,0.388,0.338*
%
%ADD11ROUNDEDRECTD11*%
G04:AMPARAMS|DCode=12|XSize=1mm|YSize=1mm|CornerRadius=0.2mm|HoleSize=0mm|Usage=FLASHONLY|Rotation=270.000|XOffset=0mm|YOffset=0mm|HoleType=Round|Shape=RoundedRectangle|*
%AMROUNDEDRECTD12*
21,1,1.000,0.600,0,0,270.0*
21,1,0.600,1.000,0,0,270.0*
1,1,0.400,-0.300,-0.300*
1,1,0.400,-0.300,0.300*
1,1,0.400,0.300,0.300*
1,1,0.400,0.300,-0.300*
%
%ADD12ROUNDEDRECTD12*%
G04:AMPARAMS|DCode=13|XSize=1.2mm|YSize=1.1mm|CornerRadius=0.213mm|HoleSize=0mm|Usage=FLASHONLY|Rotation=90.000|XOffset=0mm|YOffset=0mm|HoleType=Round|Shape=RoundedRectangle|*
%AMROUNDEDRECTD13*
21,1,1.200,0.675,0,0,90.0*
21,1,0.775,1.100,0,0,90.0*
1,1,0.425,0.338,0.388*
1,1,0.425,0.338,-0.388*
1,1,0.425,-0.338,-0.388*
1,1,0.425,-0.338,0.388*
%
%ADD13ROUNDEDRECTD13*%
%ADD14R,1.420X0.600*%
%ADD15O,1.420X0.600*%
%ADD16R,4.823X4.721*%
%ADD17R,1.851X0.810*%
D11*
X11075Y4400D02*
D03*
Y2700D02*
D03*
X14150Y2700D02*
D03*
Y4400D02*
D03*
X5125Y4400D02*
D03*
Y2700D02*
D03*
X775Y2700D02*
D03*
Y4400D02*
D03*
D12*
X12600Y2700D02*
D03*
Y4400D02*
D03*
D13*
X3800Y2750D02*
D03*
X2100D02*
D03*
X2100Y4350D02*
D03*
X3800D02*
D03*
D14*
X6600Y4900D02*
D03*
D15*
Y4250D02*
D03*
Y3600D02*
D03*
Y2950D02*
D03*
X9220Y4900D02*
D03*
Y4250D02*
D03*
Y3600D02*
D03*
Y2950D02*
D03*
D16*
X2900Y7700D02*
D03*
X13100Y7600D02*
D03*
D17*
X6718Y9605D02*
D03*
Y8335D02*
D03*
Y7065D02*
D03*
Y5795D02*
D03*
X9282Y5695D02*
D03*
Y6965D02*
D03*
Y8235D02*
D03*
Y9505D02*
D03*
M02*
